<?xml version="1.0" encoding="iso-8859-1"?>
<!-- Generator: Adobe Illustrator 19.0.0, SVG Export Plug-In . SVG Version: 6.00 Build 0)  -->
<svg version="1.1" id="Layer_1" xmlns="http://www.w3.org/2000/svg" xmlns:xlink="http://www.w3.org/1999/xlink" x="0px" y="0px"
	 viewBox="0 0 496.158 496.158" style="enable-background:new 0 0 496.158 496.158;" xml:space="preserve">
<path style="fill:#48A1AF;" d="M248.082,0.003C111.07,0.003,0,111.063,0,248.085c0,137.001,111.07,248.07,248.082,248.07
	c137.006,0,248.076-111.069,248.076-248.07C496.158,111.062,385.088,0.003,248.082,0.003z"/>
<g>
	<path style="fill:#5B5B5B;" d="M217.869,282.371H94.967c-9.689,0-17.547,7.855-17.547,17.545v66.291
		c0,9.69,7.857,17.545,17.547,17.545h122.902c9.689,0,17.545-7.855,17.545-17.545v-66.291
		C235.414,290.225,227.558,282.371,217.869,282.371z"/>
	<path style="fill:#5B5B5B;" d="M402.535,282.371H279.633c-9.689,0-17.545,7.855-17.545,17.545v66.291
		c0,9.69,7.855,17.545,17.545,17.545h122.902c9.689,0,17.547-7.855,17.547-17.545v-66.291
		C420.082,290.225,412.225,282.371,402.535,282.371z"/>
</g>
<path style="fill:#161616;" d="M214.062,283.528c-4.18-21.001-12.838-31.503-28.676-31.503h-56.76
	c-15.842,0-23.305,14.444-28.684,31.503c-5.379,17.058-11.949,85.311-11.949,85.311c0,17.4,12.842,31.502,28.682,31.502h78.27
	c15.836,0,28.678-14.103,28.678-31.502C223.623,368.839,218.246,304.529,214.062,283.528z"/>
<path style="fill:#EDEDED;" d="M174.437,252.025h-34.91c-9.744,0,2.922,148.316,6.982,148.316h20.072
	C170.646,400.341,184.18,252.025,174.437,252.025z"/>
<polygon style="fill:#2E597C;" points="162.264,265.681 157.379,260.756 155.348,260.863 151.588,265.681 137.848,374.358 
	156.195,391.158 176.006,374.358 "/>
<g>
	<polygon style="fill:#407EA8;" points="163.609,276.336 148.699,288.538 147.803,295.602 164.334,282.07 	"/>
	<polygon style="fill:#407EA8;" points="165.66,292.561 146.176,308.514 145.279,315.579 166.391,298.295 	"/>
	<polygon style="fill:#407EA8;" points="167.713,308.782 143.648,328.485 142.754,335.543 168.441,314.522 	"/>
	<polygon style="fill:#407EA8;" points="169.766,325.014 141.123,348.455 140.23,355.519 170.492,330.743 	"/>
	<polygon style="fill:#407EA8;" points="171.818,341.24 138.596,368.425 137.848,374.358 138.574,374.776 172.539,346.98 	"/>
	<polygon style="fill:#407EA8;" points="173.869,357.466 145.039,381.015 148.801,384.41 174.6,363.2 	"/>
	<path style="fill:#407EA8;" d="M156.715,254.023c-4.912,0-8.9,4.034-8.9,9.008c0,4.984,3.988,9.018,8.9,9.018
		c4.918,0,8.9-4.034,8.9-9.018C165.615,258.057,161.633,254.023,156.715,254.023z"/>
</g>
<path style="fill:#E9C29C;" d="M155.103,128.816c-31.928,0-57.801,25.876-57.801,57.798c0,31.926,25.873,57.803,57.801,57.803
	c31.924,0,57.801-25.877,57.801-57.803C212.904,154.692,187.027,128.816,155.103,128.816z"/>
<path style="fill:#A46434;" d="M155.103,128.816c-31.928,0-57.801,25.876-57.801,57.798c0,0,23.832-1.685,45.416-11.442
	c22.385-10.124,30.777-24.022,30.777-24.022l39.408,35.464C212.904,154.692,187.027,128.816,155.103,128.816z"/>
<g>
	<ellipse style="fill:#343433;" cx="137.779" cy="195.199" rx="7.92" ry="8.366"/>
	<path style="fill:#343433;" d="M172.094,186.833c-4.371,0-7.914,3.75-7.914,8.368c0,4.619,3.543,8.365,7.914,8.365
		c4.375,0,7.924-3.746,7.924-8.365C180.017,190.583,176.469,186.833,172.094,186.833z"/>
</g>
<g>
	<path style="fill:#FFFFFF;" d="M174.568,188.684c-1.742,0-3.162,1.499-3.162,3.346c0,1.845,1.42,3.345,3.162,3.345
		c1.752,0,3.168-1.5,3.168-3.345C177.736,190.183,176.32,188.684,174.568,188.684z"/>
	<path style="fill:#FFFFFF;" d="M140.164,188.684c-1.746,0-3.162,1.499-3.162,3.346c0,1.845,1.416,3.345,3.162,3.345
		c1.754,0,3.172-1.5,3.172-3.345C143.336,190.183,141.918,188.684,140.164,188.684z"/>
</g>
<path style="fill:#7FCDCC;" d="M398.603,283.528c-4.18-21.001-12.838-31.503-28.676-31.503h-56.76
	c-15.844,0-23.305,14.444-28.684,31.503c-5.379,17.058-11.949,85.311-11.949,85.311c0,17.4,12.842,31.502,28.68,31.502h78.271
	c15.836,0,28.678-14.103,28.678-31.502C408.164,368.839,402.787,304.529,398.603,283.528z"/>
<path style="fill:#EDEDED;" d="M323.861,252.025c0,42.554,2.922,148.316,6.98,148.316h20.072c4.064,0,7.857-105.762,7.857-148.316
	L323.861,252.025L323.861,252.025z"/>
<g>
	<polygon style="fill:#8DD3D5;" points="356.359,341.24 323.137,368.425 322.389,374.358 323.115,374.776 357.082,346.98 	"/>
	<polygon style="fill:#8DD3D5;" points="358.41,357.466 329.582,381.015 333.342,384.41 359.141,363.2 	"/>
</g>
<path style="fill:#E9C29C;" d="M339.644,128.816c-31.928,0-57.801,25.876-57.801,57.798c0,31.926,25.873,57.803,57.801,57.803
	c31.922,0,57.801-25.877,57.801-57.803C397.445,154.692,371.566,128.816,339.644,128.816z"/>
<path style="fill:#A46434;" d="M339.644,128.816c-31.928,0-57.801,25.876-57.801,57.798c0,0,23.832-1.685,45.416-11.442
	c22.383-10.124,30.775-24.022,30.775-24.022l39.41,35.464C397.445,154.692,371.566,128.816,339.644,128.816z"/>
<g>
	<ellipse style="fill:#343433;" cx="322.319" cy="195.199" rx="7.92" ry="8.366"/>
	<path style="fill:#343433;" d="M356.635,186.833c-4.371,0-7.914,3.75-7.914,8.368c0,4.619,3.543,8.365,7.914,8.365
		c4.375,0,7.922-3.746,7.922-8.365C364.557,190.583,361.01,186.833,356.635,186.833z"/>
</g>
<g>
	<path style="fill:#FFFFFF;" d="M359.111,188.684c-1.744,0-3.164,1.499-3.164,3.346c0,1.845,1.42,3.345,3.164,3.345
		c1.75,0,3.166-1.5,3.166-3.345C362.277,190.183,360.861,188.684,359.111,188.684z"/>
	<path style="fill:#FFFFFF;" d="M324.705,188.684c-1.746,0-3.162,1.499-3.162,3.346c0,1.845,1.416,3.345,3.162,3.345
		c1.756,0,3.17-1.5,3.17-3.345C327.875,190.183,326.461,188.684,324.705,188.684z"/>
</g>
<path style="fill:#967945;" d="M27.861,362.385c41.342,79.479,124.436,133.77,220.221,133.77
	c95.781,0,178.875-54.292,220.215-133.77L27.861,362.385L27.861,362.385z"/>
<path style="fill:#7F6337;" d="M14.916,332.987c3.689,10.125,8.025,19.938,12.945,29.398h440.436
	c4.92-9.46,9.258-19.272,12.945-29.398H14.916z"/>
<g>
</g>
<g>
</g>
<g>
</g>
<g>
</g>
<g>
</g>
<g>
</g>
<g>
</g>
<g>
</g>
<g>
</g>
<g>
</g>
<g>
</g>
<g>
</g>
<g>
</g>
<g>
</g>
<g>
</g>
</svg>
