<?xml version="1.0" encoding="utf-8"?>
<!-- Generator: Adobe Illustrator 15.0.0, SVG Export Plug-In . SVG Version: 6.00 Build 0)  -->
<!DOCTYPE svg PUBLIC "-//W3C//DTD SVG 1.1//EN" "http://www.w3.org/Graphics/SVG/1.1/DTD/svg11.dtd">
<svg version="1.1" id="Layer_1" xmlns="http://www.w3.org/2000/svg" xmlns:xlink="http://www.w3.org/1999/xlink" x="0px" y="0px"
	 width="504px" height="504px" viewBox="0 0 504 504" style="enable-background:new 0 0 504 504;" xml:space="preserve">
<style type="text/css">
<![CDATA[
	.st0{clip-path:url(#SVGID_2_);fill:#0B8EBE;}
]]>
</style>
<g>
	<defs>
		<rect id="SVGID_1_" width="504" height="504"/>
	</defs>
	<clipPath id="SVGID_2_">
		<use xlink:href="#SVGID_1_"  style="overflow:visible;"/>
	</clipPath>
	<path class="st0" d="M151.6,77.4h10c36,0.3,70.4,18,93.1,45.7c22.4-27.8,56.8-45.3,92.6-45.7h10.4c56.6,3.5,106.6,50.8,110.7,107.8
		v15.4c-3.3,32.9-17.2,63.6-34.5,91.4c-27.6,43.6-63.5,82.1-105.5,112.3c-13.8-10-27.5-20.1-41.3-30
		c40.2-26.4,74.8-61.1,102.1-100.7c15.9-24.2,30.6-51.4,30.6-81.1c0-32.6-26.8-61.8-58.8-66.3c-30.3-5.5-63.1,11.2-75.9,39.4
		c-6,11.5-5.1,24.8-8.2,37.1c-5.3,15.5-27.5,20.1-39,8.5c-8.6-7.4-6.9-19.8-9.1-29.8c-5.2-33.7-39.3-58.5-72.9-56
		c-32.4,1-62.3,27-66.2,59.5c-3.3,27.7,9.4,54,23.4,77c24.7,38.6,57.2,71.8,92.8,100.4c28.3,21.5,57.7,41.7,86.1,63.2
		c-13.9,5.1-28.3,10.3-43.4,8.6c-22.8-2.5-43.3-13.8-62.3-26c-40.9-27.8-75.9-63.9-103.8-104.6c-20.7-30.6-38.1-64.9-41.9-102.2
		v-13.5C43.1,129.6,94.2,80.8,151.6,77.4"/>
</g>
</svg>
