<svg id="Layer_1" enable-background="new 0 0 256 256" height="512" viewBox="0 0 256 256" width="512" xmlns="http://www.w3.org/2000/svg"><path d="m231.291 201.033h-153.612c-5.652 0-10.234-4.582-10.234-10.234v-12.173h163.846c2.637 0 4.775 2.138 4.775 4.775v12.857c-.001 2.638-2.138 4.775-4.775 4.775z" fill="#a4c9ff"/><path d="m231.291 203.033h-153.612c-6.746 0-12.234-5.488-12.234-12.234v-12.172c0-1.104.896-2 2-2h163.846c3.735 0 6.774 3.039 6.774 6.774v12.857c0 3.736-3.039 6.775-6.774 6.775zm-161.846-22.406v10.172c0 4.54 3.694 8.234 8.234 8.234h153.612c1.53 0 2.774-1.245 2.774-2.774v-12.857c0-1.53-1.244-2.774-2.774-2.774h-161.846z" fill="#3762cc"/><path d="m231.086 178.627v-13.069c0-7.713-4.574-14.692-11.647-17.769l-11.073-4.818c-2.185-.951-3.941-2.674-4.938-4.839-5.037-10.929-11.792-20.981-20.009-29.773l-10.916-11.68c-2.29-2.451-5.494-3.842-8.849-3.842h-68.696c-5.054 0-9.576 3.138-11.345 7.872l-11.635 31.137c-2.997 8.021-4.532 16.515-4.532 25.077v21.704z" fill="#4671c6"/><path d="m101.681 102.526c-5.054 0-9.576 3.138-11.345 7.872l-12.408 33.205c-.384 1.028.375 2.123 1.472 2.125h49.755v-43.202z" fill="#e0ebfc"/><path d="m195.119 143.258c-5.19-10.98-12.054-21.089-20.348-29.963l-6.474-6.928c-2.29-2.451-5.494-3.842-8.849-3.842h-22.219v43.202h56.337c.95 0 1.721-.77 1.721-1.721-.001-.258-.057-.514-.168-.748z" fill="#e0ebfc"/><path d="m129.155 102.526h8.074v43.202h-8.074z" fill="#4671c6"/><path d="m231.086 176.104h-12.902c-2.685 0-4.861-2.177-4.861-4.861v-4.828c0-.892.723-1.615 1.615-1.615h16.149v11.304z" fill="#ffea92"/><path d="m80.566 176.104h-13.121v-15.24h13.121c1.784 0 3.23 1.446 3.23 3.23v8.781c0 1.782-1.447 3.229-3.23 3.229z" fill="#ffea92"/><path d="m231.086 180.627h-163.641c-1.104 0-2-.896-2-2v-21.705c0-8.831 1.567-17.504 4.659-25.777l11.636-31.137c2.05-5.486 7.362-9.171 13.219-9.171h68.697c3.894 0 7.651 1.631 10.309 4.476l10.916 11.68c8.377 8.962 15.229 19.157 20.365 30.302.794 1.723 2.186 3.087 3.92 3.842l11.072 4.818c7.806 3.396 12.849 11.091 12.849 19.604v13.069c-.001 1.103-.897 1.999-2.001 1.999zm-161.641-4h159.641v-11.069c0-6.919-4.1-13.175-10.444-15.936l-11.072-4.818c-2.637-1.147-4.752-3.22-5.957-5.836-4.957-10.756-11.57-20.595-19.654-29.245l-10.916-11.68c-1.904-2.038-4.597-3.207-7.387-3.207h-68.698c-4.196 0-8.003 2.641-9.472 6.572l-11.636 31.137c-2.923 7.824-4.406 16.025-4.406 24.377v19.705z" fill="#3762cc"/><circle cx="100.819" cy="201.033" fill="#6bdddd" r="22.205"/><circle cx="100.819" cy="201.033" fill="#f9cfcf" r="11.89"/><circle cx="197.712" cy="201.033" fill="#6bdddd" r="22.205"/><circle cx="197.712" cy="201.033" fill="#f9cfcf" r="11.89"/><g fill="#3762cc"><path d="m100.819 225.238c-13.347 0-24.205-10.858-24.205-24.205s10.858-24.205 24.205-24.205 24.205 10.858 24.205 24.205-10.858 24.205-24.205 24.205zm0-44.409c-11.141 0-20.205 9.064-20.205 20.205s9.064 20.205 20.205 20.205 20.205-9.064 20.205-20.205-9.065-20.205-20.205-20.205z"/><path d="m100.819 214.923c-7.659 0-13.889-6.231-13.889-13.89s6.23-13.89 13.889-13.89 13.89 6.231 13.89 13.89-6.231 13.89-13.89 13.89zm0-23.779c-5.453 0-9.889 4.437-9.889 9.89s4.436 9.89 9.889 9.89 9.89-4.437 9.89-9.89-4.437-9.89-9.89-9.89z"/><path d="m197.712 225.238c-13.347 0-24.205-10.858-24.205-24.205s10.858-24.205 24.205-24.205c13.346 0 24.204 10.858 24.204 24.205s-10.858 24.205-24.204 24.205zm0-44.409c-11.142 0-20.205 9.064-20.205 20.205s9.063 20.205 20.205 20.205c11.141 0 20.204-9.064 20.204-20.205s-9.063-20.205-20.204-20.205z"/><path d="m197.712 214.923c-7.659 0-13.89-6.231-13.89-13.89s6.23-13.89 13.89-13.89 13.89 6.231 13.89 13.89-6.231 13.89-13.89 13.89zm0-23.779c-5.453 0-9.89 4.437-9.89 9.89s4.437 9.89 9.89 9.89 9.89-4.437 9.89-9.89-4.437-9.89-9.89-9.89z"/></g><path d="m129.155 102.526h8.074v43.202h-8.074z" fill="#4671c6"/><path d="m129.154 147.728h-49.755c-1.173-.001-2.27-.577-2.936-1.539-.667-.962-.82-2.191-.41-3.287l12.408-33.205c2.05-5.486 7.362-9.172 13.219-9.172h27.474c1.104 0 2 .896 2 2v43.202c0 1.106-.895 2.001-2 2.001zm-49.138-4h47.139v-39.202h-25.474c-4.196 0-8.003 2.641-9.472 6.572z" fill="#3762cc"/><path d="m193.565 147.728h-56.336c-1.104 0-2-.896-2-2v-43.202c0-1.104.896-2 2-2h22.219c3.893 0 7.65 1.631 10.31 4.476l6.474 6.928c8.446 9.038 15.409 19.291 20.696 30.474v.001c.234.497.358 1.051.358 1.603 0 2.051-1.669 3.72-3.721 3.72zm-54.336-4h53.898c-5.086-10.66-11.752-20.437-19.818-29.067l-6.474-6.928c-1.905-2.038-4.598-3.207-7.388-3.207h-20.219v39.202z" fill="#3762cc"/><path d="m190.379 150.494h-4.088c-1.084 0-1.963-.879-1.963-1.963v-16.75c0-1.084.879-1.963 1.963-1.963h4.088c2.71 0 4.907 2.197 4.907 4.907v10.861c0 2.711-2.197 4.908-4.907 4.908z" fill="#6bdddd"/><path d="m190.379 152.494h-4.088c-2.186 0-3.963-1.778-3.963-3.963v-16.75c0-2.185 1.777-3.963 3.963-3.963h4.088c3.809 0 6.907 3.099 6.907 6.907v10.861c0 3.81-3.098 6.908-6.907 6.908zm-4.088-20.676.037 16.713 4.051-.037c1.604 0 2.907-1.304 2.907-2.907v-10.861c0-1.603-1.304-2.907-2.907-2.907h-4.088z" fill="#3762cc"/><path d="m97.286 147.988h-54.496c-1.646 0-2.981-1.335-2.981-2.981s1.335-2.981 2.981-2.981h54.496c1.646 0 2.981 1.335 2.981 2.981.001 1.646-1.334 2.981-2.981 2.981z" fill="#f9a7a7"/><path d="m77.412 171.306h-54.496c-1.646 0-2.981-1.335-2.981-2.981s1.335-2.981 2.981-2.981h54.496c1.646 0 2.981 1.335 2.981 2.981 0 1.647-1.334 2.981-2.981 2.981z" fill="#f9a7a7"/><path d="m97.286 194.94h-54.496c-1.646 0-2.981-1.335-2.981-2.981s1.335-2.981 2.981-2.981h54.496c1.646 0 2.981 1.335 2.981 2.981.001 1.647-1.334 2.981-2.981 2.981z" fill="#f9a7a7"/><path d="m242.04 235.164h-228.08c-3.292 0-5.96-2.668-5.96-5.96v-.006c0-3.292 2.668-5.96 5.96-5.96h228.08c3.292 0 5.96 2.668 5.96 5.96v.006c0 3.291-2.668 5.96-5.96 5.96z" fill="#a4c9ff"/><path d="m242.04 237.164h-228.08c-4.389 0-7.96-3.571-7.96-7.96 0-4.395 3.571-7.966 7.96-7.966h228.08c4.389 0 7.96 3.571 7.96 7.96 0 4.395-3.571 7.966-7.96 7.966zm-228.08-11.926c-2.184 0-3.96 1.776-3.96 3.96 0 2.189 1.776 3.966 3.96 3.966h228.08c2.184 0 3.96-1.776 3.96-3.96 0-2.189-1.776-3.966-3.96-3.966z" fill="#3762cc"/><path d="m81.322 40.882c-.192-6.244-5.311-11.249-11.603-11.249-.539 0-1.069.04-1.589.111-1.984-5.207-7.021-8.908-12.925-8.908-7.638 0-13.83 6.192-13.83 13.83 0 .099.005.197.007.296-.205-.009-.411-.016-.619-.016-7.615 0-13.789 6.174-13.789 13.789s6.174 13.789 13.789 13.789h38.112c6.053 0 10.96-4.907 10.96-10.96 0-5.211-3.638-9.57-8.513-10.682z" fill="#e0ebfc"/><path d="m219.322 56.882c-.192-6.244-5.311-11.249-11.603-11.249-.539 0-1.069.04-1.589.111-1.984-5.207-7.021-8.908-12.925-8.908-7.638 0-13.83 6.192-13.83 13.83 0 .099.005.197.007.296-.205-.009-.411-.016-.619-.016-7.615 0-13.789 6.174-13.789 13.789s6.174 13.789 13.789 13.789h38.112c6.053 0 10.96-4.907 10.96-10.96 0-5.211-3.638-9.57-8.513-10.682z" fill="#e0ebfc"/></svg>